<svg width="29" height="28" viewBox="0 0 29 28" fill="none" xmlns="http://www.w3.org/2000/svg">
<path d="M14.0796 9.01245C8.85139 9.01456 3.99538 10.0957 1.57851 12.5126C0.485615 13.6055 -0.0661029 14.9295 0.00631887 16.5293C0.0510846 17.487 0.3546 18.3265 0.911709 18.8857C1.34929 19.3329 1.95725 19.58 2.66952 19.4682L7.02983 18.7299C7.70928 18.6202 8.17264 18.4167 8.47194 18.1078C8.86498 17.7223 8.98428 17.1514 8.98428 16.3983V15.1957C8.98428 15.0103 9.06842 14.8634 9.1835 14.7483C9.30701 14.6056 9.48491 14.5428 9.62014 14.5076C10.4339 14.3243 12.0785 14.1464 14.0796 14.1464C16.0828 14.1464 17.7199 14.2828 18.5411 14.5172C18.6668 14.5545 18.8351 14.6248 18.9682 14.7483C19.0736 14.8634 19.1482 15.0007 19.1578 15.1861L19.1674 16.3983C19.177 17.1514 19.2963 17.7223 19.6797 18.1078C19.9886 18.4167 20.452 18.6202 21.1315 18.7299L25.4437 19.4585C26.1731 19.58 26.7907 19.3191 27.2667 18.8548C27.828 18.3031 28.139 17.4849 28.1667 16.5197C28.2082 14.9103 27.5988 13.5863 26.5251 12.5126C24.1061 10.0957 19.3099 9.01034 14.0796 9.01245Z" fill="black"/>
</svg>
