<svg width="1355" height="1355" viewBox="0 0 1355 1355" fill="none" xmlns="http://www.w3.org/2000/svg">
<circle cx="677.5" cy="677.5" r="665" fill="#A8CBEB" stroke="#2E80CC" stroke-width="25"/>
<path d="M867.543 138.968L874.053 140.754C875.336 125.682 866.85 108.188 847.261 102.814C825.322 96.7946 805.408 110.321 797.951 137.504C790.51 164.626 800.536 186.431 823.138 192.632C843.329 198.171 861.648 188.096 868.008 165.149L869.529 159.604L836.379 150.509L834.825 156.175L861.827 163.583C856.295 182.804 841.35 191.212 824.791 186.605C806.151 181.555 797.55 163.058 804.099 139.19C810.696 115.141 827.663 103.853 845.641 108.72C861.235 113.063 867.946 126.635 867.543 138.968Z" fill="#5499D9"/>
<path d="M914.135 224.278L937.333 205.054L970.647 224.846L964.859 254.412L970.77 257.923L988.837 163.391L982.496 159.624L908.225 220.767L914.135 224.278ZM942.106 201.057L981.228 168.612L981.658 168.867L971.875 218.742L942.106 201.057Z" fill="#5499D9"/>
<path d="M1129.23 277.891L1086.61 319.415C1075.69 329.969 1060 329.81 1048.79 318.218C1037.5 306.712 1037.7 290.98 1048.58 280.381L1091.19 238.857L1086.66 234.202L1043.77 275.988C1030.57 288.855 1030.53 308.434 1044.32 322.579C1058.14 336.769 1077.63 337.243 1090.88 324.332L1133.76 282.547L1129.23 277.891Z" fill="#5499D9"/>
<path d="M1175.21 346.729L1189.53 371.801L1116.05 413.783L1119.34 419.535L1192.82 377.553L1207.08 402.515L1212.18 399.601L1180.31 343.815L1175.21 346.729Z" fill="#5499D9"/>
<path d="M1157.65 500.562L1159.35 506.837L1200.26 495.789L1214.17 547.318L1173.27 558.366L1174.99 564.762L1262.36 541.166L1260.64 534.771L1219.85 545.786L1205.93 494.257L1246.72 483.242L1245.02 476.966L1157.65 500.562Z" fill="#5499D9"/>
<path d="M486.016 1225.81L479.507 1224.02C478.223 1239.09 486.71 1256.59 506.299 1261.96C528.238 1267.98 548.151 1254.45 555.609 1227.27C563.05 1200.15 553.024 1178.34 530.422 1172.14C510.23 1166.6 491.912 1176.68 485.552 1199.63L484.03 1205.17L517.18 1214.27L518.735 1208.6L491.732 1201.19C497.265 1181.97 512.21 1173.56 528.768 1178.17C547.409 1183.22 556.009 1201.72 549.461 1225.58C542.863 1249.63 525.897 1260.92 507.919 1256.05C492.325 1251.71 485.614 1238.14 486.016 1225.81Z" fill="#5499D9"/>
<path d="M439.424 1140.5L416.227 1159.72L382.912 1139.93L388.7 1110.36L382.789 1106.85L364.723 1201.38L371.063 1205.15L445.335 1144.01L439.424 1140.5ZM411.453 1163.72L372.332 1196.16L371.902 1195.91L381.685 1146.03L411.453 1163.72Z" fill="#5499D9"/>
<path d="M224.334 1086.88L266.948 1045.36C277.87 1034.81 293.558 1034.96 304.766 1046.56C316.064 1058.06 315.86 1073.79 304.983 1084.39L262.368 1125.92L266.904 1130.57L309.788 1088.79C322.993 1075.92 323.026 1056.34 309.243 1042.2C295.416 1028.01 275.931 1027.53 262.681 1040.44L219.797 1082.23L224.334 1086.88Z" fill="#5499D9"/>
<path d="M178.354 1018.05L164.029 992.974L237.506 950.992L234.22 945.239L160.743 987.222L146.48 962.259L141.379 965.173L173.253 1020.96L178.354 1018.05Z" fill="#5499D9"/>
<path d="M195.905 864.212L194.21 857.937L153.301 868.985L139.385 817.457L180.294 806.408L178.567 800.012L91.1971 823.608L92.9244 830.004L133.713 818.988L147.629 870.517L106.841 881.533L108.535 887.808L195.905 864.212Z" fill="#5499D9"/>
<circle cx="677" cy="678" r="367.5" stroke="#5499D9" stroke-width="15"/>
<path d="M1034.82 761.772C1021.57 818.386 995.072 871.047 957.507 915.428C919.942 959.809 872.382 994.643 818.735 1017.07C765.089 1039.49 706.887 1048.87 648.912 1044.43C590.937 1039.98 534.844 1021.84 485.242 991.505C435.64 961.165 393.945 919.489 363.583 869.901C333.221 820.313 315.058 764.228 310.588 706.256C306.117 648.283 315.466 590.077 337.867 536.42C360.267 482.763 395.08 435.187 439.444 397.602" stroke="#5499D9" stroke-width="15"/>
<path d="M905.356 495.782L683.555 370V528.025L765.756 574.086L905.356 495.782Z" fill="white"/>
<path d="M674.697 528.378V371.062L408.961 522.355L545.372 601.367L674.697 528.378Z" fill="white"/>
<path d="M404 832.027V531.922L542.892 611.997V752.306L404 832.027Z" fill="white"/>
<path d="M675.052 986.509L408.961 838.05L549.27 757.267L675.052 830.256V986.509Z" fill="white"/>
<path d="M683.909 986.153L950 837.695L809.691 756.911L683.909 829.9V986.153Z" fill="white"/>
<path d="M675.05 686.758V799.076L574.425 740.968L675.05 686.758Z" fill="white"/>
<path d="M681.783 686.758V799.076L782.408 740.968L681.783 686.758Z" fill="white"/>
<path d="M664.776 681.089L570.174 737.071V626.17L664.776 681.089Z" fill="white"/>
<path d="M675.052 676.837L569.82 616.604L675.052 559.913V676.837Z" fill="white"/>
</svg>
