<svg width="33" height="28" viewBox="0 0 33 28" fill="none" xmlns="http://www.w3.org/2000/svg">
<path d="M1.48991 24.7783H4.16437C5.05663 24.7783 5.65428 24.174 5.65428 23.2816V18.1844C5.65428 17.2919 5.05663 16.6973 4.16437 16.6973H1.48991C0.597652 16.6973 0 17.2919 0 18.1844V23.2816C0 24.174 0.597652 24.7783 1.48991 24.7783Z" fill="black"/>
<path d="M10.4255 24.7783H13.0978C13.9922 24.7783 14.5877 24.174 14.5877 23.2816V14.5344C14.5877 13.6399 13.9922 13.0356 13.0978 13.0356H10.4255C9.53109 13.0356 8.93555 13.6399 8.93555 14.5344V23.2816C8.93555 24.174 9.53109 24.7783 10.4255 24.7783Z" fill="black"/>
<path d="M19.359 24.7782H22.0334C22.9182 24.7782 23.5234 24.1739 23.5234 23.2815V10.2142C23.5234 9.31954 22.9182 8.71533 22.0334 8.71533H19.359C18.4667 8.71533 17.8691 9.31954 17.8691 10.2142V23.2815C17.8691 24.1739 18.4667 24.7782 19.359 24.7782Z" fill="black"/>
<path d="M28.2848 24.7783H30.9785C31.8611 24.7783 32.4588 24.174 32.4588 23.2816V5.49671C32.4588 4.60211 31.8611 4 30.9785 4H28.2848C27.4001 4 26.7949 4.60211 26.7949 5.49671V23.2816C26.7949 24.174 27.4001 24.7783 28.2848 24.7783Z" fill="black"/>
</svg>
