<svg width="28" height="28" viewBox="0 0 28 28" fill="none" xmlns="http://www.w3.org/2000/svg">
<path d="M13.661 23.7667C13.9442 23.7667 14.19 23.6369 14.6597 23.181L17.5381 20.4156C17.7434 20.2124 17.7924 19.9061 17.6009 19.6677C16.7906 18.6306 15.3134 17.7878 13.661 17.7878C11.966 17.7878 10.4719 18.6679 9.65954 19.757C9.52337 19.9677 9.58501 20.2187 9.79149 20.4156L12.6624 23.181C13.1342 23.6273 13.38 23.7667 13.661 23.7667Z" fill="black"/>
<path d="M6.71268 17.2884C6.99792 17.5598 7.36073 17.5267 7.62252 17.2394C9.05619 15.6787 11.3446 14.5778 13.6588 14.5874C15.9986 14.5778 18.2934 15.7138 19.7462 17.2787C19.9846 17.5523 20.3198 17.5363 20.605 17.2787L22.4467 15.4719C22.6595 15.2612 22.6872 14.9697 22.4882 14.7355C20.668 12.5317 17.3277 10.926 13.6588 10.926C9.98994 10.926 6.65174 12.5317 4.82948 14.7355C4.6305 14.9697 4.64854 15.242 4.87096 15.4719L6.71268 17.2884Z" fill="black"/>
<path d="M1.81572 12.4068C2.07541 12.659 2.45416 12.6569 2.70212 12.393C5.5997 9.32382 9.39658 7.70241 13.6589 7.70241C17.9468 7.70241 21.765 9.33343 24.6413 12.4068C24.8796 12.6452 25.2445 12.6334 25.5021 12.3812L27.1425 10.7387C27.3766 10.5067 27.3713 10.2046 27.1819 9.98218C24.3689 6.5057 19.1154 4.01172 13.6589 4.01172C8.21205 4.01172 2.93931 6.5057 0.135958 9.98218C-0.0534164 10.2046 -0.0491978 10.5067 0.175332 10.7387L1.81572 12.4068Z" fill="black"/>
</svg>
