<svg width="375" height="415" viewBox="0 0 375 415" fill="none" xmlns="http://www.w3.org/2000/svg">
<g clip-path="url(#clip0_3075_76123)">
<rect width="375" height="415" fill="white"/>
<g opacity="0.2" filter="url(#filter0_f_3075_76123)">
<path d="M152.243 287.567V243.82H107.901V259.742H134.536V279.235C131.362 281.615 127.592 283.55 123.227 285.038C118.962 286.427 114.349 287.121 109.389 287.121C104.032 287.121 99.1713 286.179 94.8065 284.294C90.5409 282.409 86.8209 279.83 83.6465 276.556C80.5713 273.183 78.1905 269.215 76.5041 264.652C74.8177 260.089 73.9745 255.129 73.9745 249.772C73.9745 244.713 74.8177 239.951 76.5041 235.487C78.2897 231.023 80.6705 227.105 83.6465 223.732C86.7217 220.359 90.2929 217.731 94.3601 215.846C98.5265 213.862 102.99 212.87 107.752 212.87C111.026 212.87 114.002 213.167 116.68 213.763C119.458 214.259 121.987 215.003 124.269 215.995C126.55 216.887 128.733 218.028 130.816 219.417C132.899 220.806 134.933 222.343 136.917 224.03L148.523 210.191C145.845 207.91 143.067 205.926 140.19 204.239C137.413 202.454 134.437 200.966 131.262 199.775C128.088 198.585 124.616 197.692 120.846 197.097C117.176 196.403 113.059 196.055 108.496 196.055C100.659 196.055 93.4177 197.494 86.7713 200.371C80.2241 203.247 74.5697 207.166 69.8081 212.126C65.0465 216.987 61.3265 222.691 58.6481 229.238C56.0689 235.785 54.7793 242.729 54.7793 250.07C54.7793 257.708 56.0689 264.801 58.6481 271.348C61.2273 277.895 64.8481 283.599 69.5105 288.46C74.2721 293.222 79.9761 296.991 86.6225 299.769C93.2689 302.447 100.659 303.787 108.794 303.787C113.357 303.787 117.722 303.34 121.888 302.447C126.054 301.654 129.923 300.513 133.494 299.025C137.165 297.537 140.538 295.801 143.613 293.817C146.787 291.833 149.664 289.75 152.243 287.567ZM263.572 197.841H245.27V257.807C245.27 267.43 242.939 274.671 238.276 279.532C233.614 284.393 227.216 286.823 219.081 286.823C210.848 286.823 204.4 284.294 199.737 279.235C195.075 274.175 192.744 266.785 192.744 257.063V197.841H174.441V257.807C174.441 265.347 175.483 271.993 177.566 277.747C179.649 283.401 182.625 288.163 186.494 292.031C190.363 295.9 195.025 298.827 200.481 300.811C205.937 302.695 212.038 303.638 218.784 303.638C225.628 303.638 231.779 302.695 237.235 300.811C242.79 298.827 247.502 295.9 251.371 292.031C255.24 288.063 258.216 283.153 260.299 277.3C262.481 271.447 263.572 264.652 263.572 256.915V197.841ZM289.737 197.841V302.001H308.039V197.841H289.737Z" fill="#FC903F"/>
<path d="M152.243 287.567L154.827 290.621L156.243 289.423V287.567H152.243ZM152.243 243.82H156.243V239.82H152.243V243.82ZM107.901 243.82V239.82H103.901V243.82H107.901ZM107.901 259.742H103.901V263.742H107.901V259.742ZM134.536 259.742H138.536V255.742H134.536V259.742ZM134.536 279.235L136.936 282.435L138.536 281.235V279.235H134.536ZM123.227 285.038L124.466 288.841L124.492 288.833L124.518 288.824L123.227 285.038ZM94.8065 284.294L93.1898 287.953L93.2053 287.959L93.2208 287.966L94.8065 284.294ZM83.6465 276.556L80.6907 279.251L80.7321 279.297L80.7749 279.341L83.6465 276.556ZM76.5041 235.487L72.7902 234.002L72.7759 234.038L72.7622 234.074L76.5041 235.487ZM83.6465 223.732L80.6907 221.037L80.6687 221.061L80.6472 221.086L83.6465 223.732ZM94.3601 215.846L96.042 219.475L96.0609 219.466L96.0798 219.457L94.3601 215.846ZM116.68 213.763L115.812 217.667L115.894 217.686L115.977 217.7L116.68 213.763ZM124.269 215.995L122.674 219.663L122.742 219.692L122.811 219.72L124.269 215.995ZM136.917 224.03L134.326 227.078L137.394 229.685L139.982 226.6L136.917 224.03ZM148.523 210.191L151.588 212.762L154.139 209.72L151.117 207.146L148.523 210.191ZM140.19 204.239L138.027 207.604L138.097 207.649L138.168 207.69L140.19 204.239ZM120.846 197.097L120.103 201.027L120.163 201.039L120.223 201.048L120.846 197.097ZM86.7713 200.371L85.1824 196.7L85.1723 196.704L85.1622 196.709L86.7713 200.371ZM69.8081 212.126L72.6655 214.925L72.6797 214.91L72.6937 214.896L69.8081 212.126ZM58.6481 229.238L54.9459 227.723L54.936 227.747L54.9265 227.772L58.6481 229.238ZM69.5105 288.46L66.6238 291.229L66.6526 291.259L66.6821 291.289L69.5105 288.46ZM86.6225 299.769L85.0801 303.46L85.1037 303.47L85.1274 303.479L86.6225 299.769ZM121.888 302.447L121.14 298.518L121.095 298.527L121.05 298.536L121.888 302.447ZM133.494 299.025L131.992 295.318L131.974 295.325L131.956 295.333L133.494 299.025ZM143.613 293.817L141.493 290.425L141.468 290.44L141.444 290.456L143.613 293.817ZM156.243 287.567V243.82H148.243V287.567H156.243ZM152.243 239.82H107.901V247.82H152.243V239.82ZM103.901 243.82V259.742H111.901V243.82H103.901ZM107.901 263.742H134.536V255.742H107.901V263.742ZM130.536 259.742V279.235H138.536V259.742H130.536ZM132.136 276.035C129.348 278.126 125.966 279.878 121.937 281.252L124.518 288.824C129.218 287.222 133.375 285.105 136.936 282.435L132.136 276.035ZM121.989 281.234C118.163 282.48 113.972 283.121 109.389 283.121V291.121C114.725 291.121 119.76 290.373 124.466 288.841L121.989 281.234ZM109.389 283.121C104.508 283.121 100.197 282.264 96.3922 280.622L93.2208 287.966C98.146 290.093 103.556 291.121 109.389 291.121V283.121ZM96.4232 280.635C92.6173 278.953 89.3261 276.667 86.5181 273.772L80.7749 279.341C84.3157 282.992 88.4645 285.865 93.1898 287.953L96.4232 280.635ZM86.6023 273.861C83.8967 270.894 81.7758 267.378 80.2561 263.266L72.7521 266.039C74.6053 271.053 77.2459 275.473 80.6907 279.251L86.6023 273.861ZM80.2561 263.266C78.7495 259.189 77.9745 254.704 77.9745 249.772H69.9745C69.9745 255.554 70.8859 260.989 72.7521 266.039L80.2561 263.266ZM77.9745 249.772C77.9745 245.167 78.7403 240.887 80.246 236.901L72.7622 234.074C70.8951 239.016 69.9745 244.259 69.9745 249.772H77.9745ZM80.218 236.973C81.8454 232.905 83.993 229.385 86.6459 226.379L80.6472 221.086C77.348 224.825 74.734 229.142 72.7902 234.002L80.218 236.973ZM86.6023 226.427C89.3259 223.44 92.4662 221.132 96.042 219.475L92.6783 212.217C88.1196 214.329 84.1175 217.279 80.6907 221.037L86.6023 226.427ZM96.0798 219.457C99.6917 217.737 103.566 216.87 107.752 216.87V208.87C102.415 208.87 97.3613 209.986 92.6404 212.234L96.0798 219.457ZM107.752 216.87C110.788 216.87 113.467 217.146 115.812 217.667L117.548 209.858C114.536 209.189 111.263 208.87 107.752 208.87V216.87ZM115.977 217.7C118.488 218.149 120.713 218.81 122.674 219.663L125.864 212.326C123.261 211.195 120.427 210.368 117.383 209.825L115.977 217.7ZM122.811 219.72C124.82 220.506 126.748 221.512 128.597 222.745L133.035 216.089C130.718 214.544 128.281 213.269 125.726 212.27L122.811 219.72ZM128.597 222.745C130.546 224.044 132.456 225.488 134.326 227.078L139.507 220.982C137.41 219.199 135.252 217.567 133.035 216.089L128.597 222.745ZM139.982 226.6L151.588 212.762L145.458 207.621L133.852 221.459L139.982 226.6ZM151.117 207.146C148.27 204.721 145.303 202.6 142.213 200.789L138.168 207.69C140.832 209.252 143.419 211.098 145.929 213.236L151.117 207.146ZM142.353 200.875C139.331 198.932 136.1 197.317 132.667 196.03L129.858 203.521C132.774 204.614 135.495 205.976 138.027 207.604L142.353 200.875ZM132.667 196.03C129.211 194.734 125.474 193.778 121.47 193.146L120.223 201.048C123.758 201.606 126.965 202.436 129.858 203.521L132.667 196.03ZM121.59 193.167C117.628 192.417 113.256 192.055 108.496 192.055V200.055C112.862 200.055 116.724 200.388 120.103 201.027L121.59 193.167ZM108.496 192.055C100.158 192.055 92.3704 193.588 85.1824 196.7L88.3602 204.041C94.465 201.399 101.16 200.055 108.496 200.055V192.055ZM85.1622 196.709C78.1548 199.788 72.0616 204.002 66.9226 209.356L72.6937 214.896C77.0778 210.329 82.2934 206.707 88.3804 204.033L85.1622 196.709ZM66.9507 209.327C61.8127 214.572 57.8123 220.717 54.9459 227.723L62.3503 230.752C64.8407 224.665 68.2803 219.402 72.6655 214.925L66.9507 209.327ZM54.9265 227.772C52.1554 234.806 50.7793 242.249 50.7793 250.07H58.7793C58.7793 243.209 59.9824 236.764 62.3697 230.704L54.9265 227.772ZM50.7793 250.07C50.7793 258.167 52.1482 265.762 54.9265 272.814L62.3697 269.882C59.9896 263.84 58.7793 257.249 58.7793 250.07H50.7793ZM54.9265 272.814C57.6878 279.824 61.5849 285.976 66.6238 291.229L72.3972 285.691C68.1113 281.223 64.7668 275.967 62.3697 269.882L54.9265 272.814ZM66.6821 291.289C71.8372 296.444 77.9869 300.495 85.0801 303.46L88.1649 296.078C81.9653 293.487 76.707 290 72.3389 285.632L66.6821 291.289ZM85.1274 303.479C92.3089 306.373 100.216 307.787 108.794 307.787V299.787C101.103 299.787 94.2289 298.522 88.1176 296.059L85.1274 303.479ZM108.794 307.787C113.619 307.787 118.266 307.314 122.726 306.359L121.05 298.536C117.178 299.366 113.095 299.787 108.794 299.787V307.787ZM122.636 306.377C127.048 305.536 131.184 304.321 135.033 302.717L131.956 295.333C128.662 296.705 125.061 297.771 121.14 298.518L122.636 306.377ZM134.997 302.732C138.881 301.157 142.479 299.309 145.781 297.178L141.444 290.456C138.596 292.293 135.449 293.917 131.992 295.318L134.997 302.732ZM145.733 297.209C149.053 295.134 152.087 292.94 154.827 290.621L149.659 284.514C147.241 286.56 144.522 288.532 141.493 290.425L145.733 297.209ZM263.572 197.841H267.572V193.841H263.572V197.841ZM245.27 197.841V193.841H241.27V197.841H245.27ZM192.744 197.841H196.744V193.841H192.744V197.841ZM174.441 197.841V193.841H170.441V197.841H174.441ZM177.566 277.747L173.805 279.108L173.809 279.119L173.813 279.129L177.566 277.747ZM200.481 300.811L199.114 304.57L199.145 304.581L199.175 304.591L200.481 300.811ZM237.235 300.811L238.541 304.591L238.561 304.585L238.58 304.578L237.235 300.811ZM251.371 292.031L254.199 294.86L254.217 294.842L254.235 294.824L251.371 292.031ZM260.299 277.3L256.551 275.903L256.54 275.931L256.53 275.959L260.299 277.3ZM263.572 193.841H245.27V201.841H263.572V193.841ZM241.27 197.841V257.807H249.27V197.841H241.27ZM241.27 257.807C241.27 266.841 239.081 272.915 235.39 276.763L241.163 282.301C246.797 276.428 249.27 268.019 249.27 257.807H241.27ZM235.39 276.763C231.635 280.678 226.369 282.823 219.081 282.823V290.823C228.062 290.823 235.593 288.108 241.163 282.301L235.39 276.763ZM219.081 282.823C211.726 282.823 206.436 280.601 202.679 276.524L196.796 281.945C202.363 287.987 209.969 290.823 219.081 290.823V282.823ZM202.679 276.524C198.934 272.46 196.744 266.195 196.744 257.063H188.744C188.744 267.375 191.216 275.891 196.796 281.945L202.679 276.524ZM196.744 257.063V197.841H188.744V257.063H196.744ZM192.744 193.841H174.441V201.841H192.744V193.841ZM170.441 197.841V257.807H178.441V197.841H170.441ZM170.441 257.807C170.441 265.707 171.532 272.83 173.805 279.108L181.327 276.385C179.434 271.156 178.441 264.986 178.441 257.807H170.441ZM173.813 279.129C176.075 285.271 179.348 290.542 183.666 294.86L189.322 289.203C185.903 285.783 183.223 281.531 181.319 276.364L173.813 279.129ZM183.666 294.86C187.973 299.167 193.143 302.398 199.114 304.57L201.848 297.051C196.907 295.255 192.753 292.633 189.322 289.203L183.666 294.86ZM199.175 304.591C205.115 306.643 211.667 307.638 218.784 307.638V299.638C212.409 299.638 206.759 298.747 201.787 297.03L199.175 304.591ZM218.784 307.638C225.992 307.638 232.595 306.645 238.541 304.591L235.929 297.03C230.963 298.745 225.264 299.638 218.784 299.638V307.638ZM238.58 304.578C244.649 302.41 249.88 299.179 254.199 294.86L248.542 289.203C245.124 292.621 240.931 295.243 235.889 297.044L238.58 304.578ZM254.235 294.824C258.552 290.396 261.814 284.972 264.067 278.641L256.53 275.959C254.617 281.334 251.927 285.731 248.507 289.239L254.235 294.824ZM264.047 278.698C266.43 272.305 267.572 265.02 267.572 256.915H259.572C259.572 264.285 258.532 270.589 256.551 275.903L264.047 278.698ZM267.572 256.915V197.841H259.572V256.915H267.572ZM289.737 197.841V193.841H285.737V197.841H289.737ZM289.737 302.001H285.737V306.001H289.737V302.001ZM308.039 302.001V306.001H312.039V302.001H308.039ZM308.039 197.841H312.039V193.841H308.039V197.841ZM285.737 197.841V302.001H293.737V197.841H285.737ZM289.737 306.001H308.039V298.001H289.737V306.001ZM312.039 302.001V197.841H304.039V302.001H312.039ZM308.039 193.841H289.737V201.841H308.039V193.841Z" fill="#FC903F"/>
</g>
<path d="M107.36 180.689C74.7297 180.689 50.6797 204.219 50.6797 236.329C50.6797 268.439 74.7297 291.969 107.36 291.969C139.47 291.969 163.52 268.439 163.52 236.329V231.089C163.52 230.537 163.072 230.089 162.52 230.089H106.93C106.377 230.089 105.93 230.537 105.93 231.089V249.109C105.93 249.661 106.377 250.109 106.93 250.109H137.034C137.68 250.109 138.157 250.711 137.968 251.329C134.926 261.288 123.743 270.649 107.88 270.649C88.6397 270.649 74.3397 256.219 74.3397 236.329C74.3397 216.569 88.6397 202.399 107.88 202.399C120.472 202.399 130.326 208.124 134.886 215.677C135.072 215.985 135.402 216.179 135.762 216.179H159.826C160.499 216.179 160.98 215.528 160.763 214.892C154.198 195.62 134.449 180.689 107.36 180.689Z" fill="black"/>
<path d="M176.316 242.44C176.316 272.47 195.686 291.97 224.806 291.97C253.926 291.97 273.296 272.47 273.296 242.44V184.42C273.296 183.868 272.848 183.42 272.296 183.42H250.636C250.083 183.42 249.636 183.868 249.636 184.42V242.44C249.636 259.34 240.276 270.65 224.806 270.65C209.336 270.65 199.976 259.34 199.976 242.44V184.42C199.976 183.868 199.528 183.42 198.976 183.42H177.316C176.763 183.42 176.316 183.868 176.316 184.42V242.44Z" fill="black"/>
<path d="M291.731 183.42C291.178 183.42 290.731 183.868 290.731 184.42V288.37C290.731 288.922 291.178 289.37 291.731 289.37H313.391C313.943 289.37 314.391 288.922 314.391 288.37V184.42C314.391 183.868 313.943 183.42 313.391 183.42H291.731Z" fill="black"/>
<path fill-rule="evenodd" clip-rule="evenodd" d="M164.52 228.089C165.072 228.089 165.52 228.537 165.52 229.089V236.329C165.52 269.568 140.55 293.969 107.36 293.969C73.6621 293.969 48.6797 269.58 48.6797 236.329C48.6797 203.078 73.6621 178.689 107.36 178.689C135.823 178.689 156.694 194.766 163.092 215.592L163.489 216.885C163.686 217.528 163.206 218.179 162.533 218.179H134.597C134.237 218.179 133.904 217.985 133.727 217.672L133.44 217.165C129.434 210.097 120.159 204.399 107.88 204.399C89.7545 204.399 76.3397 217.663 76.3397 236.329C76.3397 255.15 89.7796 268.649 107.88 268.649C121.459 268.649 131.173 261.46 134.997 253.452C135.3 252.816 134.819 252.109 134.115 252.109H104.93C104.377 252.109 103.93 251.661 103.93 251.109V229.089C103.93 228.537 104.377 228.089 104.93 228.089H164.52ZM137.034 250.109C137.68 250.109 138.157 250.712 137.968 251.33C137.889 251.59 137.804 251.85 137.713 252.109C134.338 261.771 123.328 270.649 107.88 270.649C88.6397 270.649 74.3397 256.219 74.3397 236.329C74.3397 216.569 88.6397 202.399 107.88 202.399C120.472 202.399 130.326 208.124 134.886 215.677C135.072 215.985 135.402 216.179 135.762 216.179H159.826C160.499 216.179 160.98 215.528 160.763 214.892C160.682 214.653 160.598 214.416 160.513 214.179C153.709 195.253 134.115 180.689 107.36 180.689C74.7297 180.689 50.6797 204.219 50.6797 236.329C50.6797 268.439 74.7297 291.969 107.36 291.969C139.47 291.969 163.52 268.439 163.52 236.329V231.089C163.52 230.537 163.072 230.089 162.52 230.089H106.93C106.377 230.089 105.93 230.537 105.93 231.089V249.109C105.93 249.661 106.377 250.109 106.93 250.109H137.034ZM274.296 181.419C274.848 181.419 275.296 181.867 275.296 182.419V242.439C275.296 257.891 270.304 270.806 261.397 279.867C252.487 288.931 239.824 293.969 224.806 293.969C209.788 293.969 197.124 288.931 188.214 279.867C179.307 270.806 174.316 257.891 174.316 242.439V182.419C174.316 181.867 174.763 181.419 175.316 181.419H200.976C201.528 181.419 201.976 181.867 201.976 182.419V242.439C201.976 250.534 204.216 257.081 208.102 261.573C211.959 266.032 217.593 268.649 224.806 268.649C232.018 268.649 237.652 266.032 241.509 261.573C245.395 257.081 247.636 250.534 247.636 242.439V182.419C247.636 181.867 248.083 181.419 248.636 181.419H274.296ZM176.316 184.419C176.316 183.867 176.763 183.419 177.316 183.419H198.976C199.528 183.419 199.976 183.867 199.976 184.419V242.439C199.976 259.339 209.336 270.649 224.806 270.649C240.276 270.649 249.636 259.339 249.636 242.439V184.419C249.636 183.867 250.083 183.419 250.636 183.419H272.296C272.848 183.419 273.296 183.867 273.296 184.419V242.439C273.296 272.469 253.926 291.969 224.806 291.969C195.686 291.969 176.316 272.469 176.316 242.439V184.419ZM288.731 182.419C288.731 181.867 289.178 181.419 289.731 181.419H315.391C315.943 181.419 316.391 181.867 316.391 182.419V290.369C316.391 290.921 315.943 291.369 315.391 291.369H289.731C289.178 291.369 288.731 290.921 288.731 290.369V182.419ZM291.731 289.369C291.178 289.369 290.731 288.921 290.731 288.369V184.419C290.731 183.867 291.178 183.419 291.731 183.419H313.391C313.943 183.419 314.391 183.867 314.391 184.419V288.369C314.391 288.921 313.943 289.369 313.391 289.369H291.731Z" fill="black"/>
<path d="M220.597 3L189.675 20.851L220.597 38.7073L251.519 20.851L220.597 3ZM220.597 35.54L196.676 21.7235L195.169 20.851L220.603 6.16729L246.036 20.851L244.529 21.7235L220.603 35.54H220.597Z" fill="#F9FAFB"/>
<path d="M220.598 6.16797V7.91288L196.676 21.7294L195.164 20.857L220.598 6.16797Z" fill="#CFD2D3"/>
<path d="M246.031 20.857L244.519 21.7294L220.598 7.91288V6.16797L246.031 20.857Z" fill="#C5C8C9"/>
<path d="M244.519 21.7287L220.598 35.54L196.676 21.7287L220.598 7.91211L244.519 21.7287Z" fill="#F9FAFB"/>
<path d="M220.597 38.7066V56.5682L189.675 38.7066V20.8555L220.597 38.7066Z" fill="#C5C8C9"/>
<path d="M251.52 20.8555V38.7066L220.598 56.5682V38.7066L251.52 20.8555Z" fill="#CFD2D3"/>
<path d="M220.597 56.5686V59.26L187.973 40.4149L189.675 38.707L220.597 56.5686Z" fill="#DBDFE0"/>
<path d="M253.222 40.4149L220.598 59.26V56.5686L251.52 38.707L253.222 40.4149Z" fill="#F9FAFB"/>
<path d="M220.597 59.2611V61.5189L189.675 43.6626L187.973 42.6791V40.416L220.597 59.2611Z" fill="#CFD2D3"/>
<path d="M253.222 40.416V42.6791L251.52 43.6626L244.572 47.6759L242.499 48.8709L227.54 57.5109L220.598 61.5189V59.2664V59.2611L253.222 40.416Z" fill="#DBDFE0"/>
<path d="M220.597 61.5184V79.417L189.675 61.5607V43.6621L220.597 61.5184Z" fill="#C5C8C9"/>
<path d="M244.545 55.3471L227.54 65.1662V62.8079L242.498 54.168L244.545 55.3471Z" fill="#DBDFE0"/>
<path d="M242.498 48.8691V54.1673L227.54 62.8073V57.5091L242.498 48.8691Z" fill="#BBBBBC"/>
<path d="M244.572 47.6758V55.3323L244.545 55.3482L242.499 54.1691V48.8709L244.572 47.6758Z" fill="#C5C8C9"/>
<path d="M251.52 43.6621V61.5607L220.598 79.4223V61.5184L227.54 57.5104V65.1668L244.545 55.3477L244.572 55.3319V47.6754L251.52 43.6621Z" fill="#CFD2D3"/>
<path d="M253.222 63.2695V65.5326L251.52 66.5161L244.572 70.5294L242.499 71.7244L227.54 80.3591L220.598 84.3724V82.1093L253.222 63.2695Z" fill="#DBDFE0"/>
<path d="M220.597 79.4169V82.1082L187.973 63.2684L189.675 61.5605L220.597 79.4169Z" fill="#DBDFE0"/>
<path d="M253.222 63.2684L220.598 82.1082V79.4221L251.52 61.5605L253.222 63.2684Z" fill="#F9FAFB"/>
<path d="M220.597 82.1093V84.3724L189.675 66.5161L187.973 65.5326V63.2695L220.597 82.1093Z" fill="#CFD2D3"/>
<path d="M220.597 84.3719V102.244L189.675 84.3825V66.5156L220.597 84.3719Z" fill="#C5C8C9"/>
<path d="M251.52 66.5156V84.3825L220.598 102.244V84.3719L227.54 80.3586V87.9886L244.572 78.1537V70.5289L251.52 66.5156Z" fill="#CFD2D3"/>
<path d="M253.222 86.0898V88.3477L251.52 89.3312L244.572 93.3445L242.499 94.5448L227.54 103.185L220.598 107.193V107.187V104.93L253.222 86.0898Z" fill="#DBDFE0"/>
<path d="M220.597 102.242V104.929L187.973 86.0888L189.675 84.3809L220.597 102.242Z" fill="#DBDFE0"/>
<path d="M253.222 86.0888L220.598 104.929V102.242L251.52 84.3809L253.222 86.0888Z" fill="#F9FAFB"/>
<path d="M220.597 104.93V107.187L189.675 89.3312L187.973 88.3477V86.0898L220.597 104.93Z" fill="#CFD2D3"/>
<path d="M242.498 71.7227V76.9363L227.54 85.571V80.3574L242.498 71.7227Z" fill="#BBBBBC"/>
<path d="M244.571 78.1325V78.1537L227.54 87.9887V85.5722L242.498 76.9375L244.571 78.1325Z" fill="#DBDFE0"/>
<path d="M244.572 70.5273V78.1309L242.499 76.9359V71.7223L244.572 70.5273Z" fill="#C5C8C9"/>
<path d="M220.597 107.188V125.045L189.675 107.188V89.332L220.597 107.188Z" fill="#C5C8C9"/>
<path d="M242.498 94.5664V99.7589L227.54 108.394V103.207L242.498 94.5664Z" fill="#BBBBBC"/>
<path d="M244.571 100.931V100.952L227.54 110.787V108.371L242.498 99.7363L244.571 100.931Z" fill="#DBDFE0"/>
<path d="M251.52 89.332V107.188L220.598 125.045V107.199V107.194L227.54 103.186V110.789L244.572 100.954V93.3453L251.52 89.332Z" fill="#CFD2D3"/>
<path d="M244.572 93.3652V100.953L242.499 99.758V94.5655L244.572 93.3652Z" fill="#C5C8C9"/>
<path d="M220.597 129.993V147.828L189.675 129.972V112.131L220.597 129.993Z" fill="#C5C8C9"/>
<path d="M189.675 112.136V112.115" stroke="#231F20" stroke-width="0.528762" stroke-miterlimit="10"/>
<path d="M251.519 112.131V120.126L244.603 116.129L251.519 112.131Z" fill="#CFD2D3"/>
<path d="M235.609 134.245L228.412 138.401V143.319L224.933 145.328L227.545 129.592L235.609 134.245Z" fill="#C5C8C9"/>
<path d="M227.546 129.586V129.591L224.933 145.327L220.598 147.828V133.599L227.546 129.586Z" fill="#CFD2D3"/>
<path d="M251.52 128.682V129.972L243.667 134.509V133.218L251.52 128.682Z" fill="#DBDFE0"/>
<path d="M243.667 133.219V134.509L242.985 134.9L239.86 136.703L228.413 143.318V130.094L235.609 134.245L238.729 136.048V136.074L238.75 136.063L241.87 134.255L243.667 133.219Z" fill="#BBBBBC"/>
<path d="M255.792 122.591L252.672 124.394L251.52 125.055L238.729 132.442L227.545 125.986L244.577 116.145L244.603 116.135V116.129L251.52 120.127L255.792 122.591Z" fill="#F9FAFB"/>
<path d="M253.228 108.891V111.154L251.52 112.132L244.603 116.13V116.135L244.577 116.146L227.546 125.986L220.598 129.994V127.736H220.603L253.228 108.891Z" fill="#DBDFE0"/>
<path d="M220.597 125.043V127.734L187.973 108.889L188.491 108.371L189.675 107.188L220.597 125.043Z" fill="#DBDFE0"/>
<path d="M253.222 108.889L220.598 127.734V125.043L251.52 107.188L253.222 108.889Z" fill="#F9FAFB"/>
<path d="M220.597 127.736V129.994L189.675 112.138L187.973 111.149V108.891L220.597 127.736Z" fill="#CFD2D3"/>
<path d="M238.729 132.44V136.046L235.609 134.243L227.545 129.59V125.984L238.729 132.44Z" fill="#CFD2D3"/>
<path d="M255.786 122.59V126.212L251.519 128.682L243.667 133.218L241.869 134.255L238.75 136.063L238.729 136.047V132.446L251.519 125.06L252.672 124.393L255.786 122.59Z" fill="#DBDFE0"/>
<path d="M220.597 147.827H216.304L213.253 149.593L208.415 146.796H184.361L179.523 149.593L174.69 146.796H171.163L137 127.068L169.366 108.371H188.491L187.973 108.889V111.147L189.675 112.136V129.971L220.597 147.827Z" fill="#CED1D5"/>
<path d="M227.546 125.984V129.585L220.598 133.598V129.992L227.546 125.984Z" fill="#C5C8C9"/>
<path d="M327.238 96.9404L321.274 100.384L315.489 103.724L313.481 104.885L311.472 103.724L305.687 100.384L299.724 96.9404L313.481 89L327.238 96.9404Z" fill="#F9FAFB"/>
<path d="M313.481 104.884V111.77L311.286 110.502L299.724 103.826V96.9395L305.687 100.383L311.472 103.723L313.481 104.884Z" fill="#C5C8C9"/>
<path d="M335 108.17L330.812 110.587L327.076 112.746L325.336 113.748L323.597 112.746L320.411 110.904L325.657 107.876L322.943 106.307L327.238 103.827V103.684L335 108.17Z" fill="#F9FAFB"/>
<path d="M325.34 113.748V118.586L323.149 117.322L320.415 115.745L315.68 113.011V110.503L317.7 109.338L319.864 110.586L320.415 110.903L323.6 112.746L325.34 113.748Z" fill="#C5C8C9"/>
<path d="M315.676 113.004V113.012L315.672 113.008L315.676 113.004Z" fill="#231F20"/>
<path d="M335 108.17V113.008L327.531 117.319L325.336 118.587V113.749L327.075 112.747L330.812 110.587L335 108.17Z" fill="#CFD2D3"/>
<path d="M325.336 118.591V125.375L323.145 124.111L315.68 119.8V119.796H315.676L313.485 118.532V118.528H313.481V138.185L311.286 136.917V121.365L305.778 118.183L305.77 118.179L303.583 116.915V114.368L307.957 116.895L311.286 118.817V110.508L313.481 111.776V115.98L315.676 117.248L323.145 121.563V117.327L325.336 118.591Z" fill="#C5C8C9"/>
<path d="M315.676 119.791V136.912L313.481 138.18V118.523L315.676 119.791Z" fill="#CFD2D3"/>
<path d="M327.531 117.318V124.102L325.336 125.37V118.586L327.531 117.318Z" fill="#CFD2D3"/>
<path d="M307.958 109.275L303.714 111.723L297.141 107.928L301.384 105.479L307.958 109.275Z" fill="#DBDFE0"/>
<path d="M303.714 111.724L301.384 113.071L294.811 109.275L297.141 107.928L303.714 111.724Z" fill="#F9FAFB"/>
<path d="M305.779 118.179L305.77 118.183V118.174L305.779 118.179Z" fill="#F9FAFB"/>
<path d="M301.384 113.071V120.718L294.811 116.918V109.275L301.384 113.071Z" fill="#C5C8C9"/>
<path d="M307.958 109.275V114.362L305.774 113.098H305.771L303.583 114.362V116.91L305.771 118.174V118.182L301.384 120.718V113.071L307.958 109.275Z" fill="#CFD2D3"/>
<path d="M311.286 116.285V118.813L307.957 116.891L303.583 114.364L305.77 113.1V113.104L305.774 113.1L307.957 114.364L311.286 116.285Z" fill="#DBDFE0"/>
<path d="M315.676 113.004L315.672 113.008L315.676 113.012V114.716L315.668 114.712L313.481 115.976V111.772L315.676 110.504V113.004Z" fill="#CFD2D3"/>
<path d="M323.145 119.026V121.558L315.676 117.243L313.481 115.975L315.668 114.711L315.676 114.715L323.145 119.026Z" fill="#DBDFE0"/>
<path d="M327.238 96.9395V103.826L322.943 106.306L317.697 109.337L315.676 110.502L313.481 111.77V104.884L315.49 103.723L321.275 100.383L327.238 96.9395Z" fill="#CFD2D3"/>
<path d="M325.657 107.876L320.411 110.903L319.86 110.586L317.697 109.338L322.943 106.307L325.657 107.876Z" fill="#DBDFE0"/>
<path d="M311.008 143.402H302.054L304.38 144.745H296.935L290.987 141.31H287.286L272 132.466H289.537L283.423 128.936H294.438L301.012 132.731H297.501L302.553 135.648H311.286V136.916L313.481 138.183H302.022L311.008 143.402Z" fill="#CED1D5"/>
<g filter="url(#filter1_d_3075_76123)">
<path d="M20 318.328L39.2489 329.439L90.4487 299.83L71.1998 288.719L20 318.328Z" fill="#CED1D5"/>
<path d="M60.3118 315.408C60.3118 316.721 59.9632 317.979 59.3259 319.074C58.6941 320.168 57.7791 321.1 56.6461 321.759C56.254 321.988 55.8346 322.091 55.4315 322.091C55.0285 322.091 54.6526 321.993 54.3095 321.813H54.2931L54.048 321.661C53.5905 321.35 53.2365 320.887 53.0785 320.321C53.0131 320.109 52.9805 319.88 52.9805 319.64C52.9805 319.063 53.0458 318.491 53.182 317.946C53.3454 317.249 53.6068 316.584 53.9609 315.974C54.5927 314.88 55.5132 313.948 56.6461 313.295C56.8531 313.175 57.0655 313.088 57.2834 313.039C57.8608 312.886 58.449 312.973 58.9556 313.218L58.9828 313.235L59.1844 313.349C59.4676 313.534 59.7181 313.774 59.9088 314.063C60.1593 314.438 60.3118 314.896 60.3118 315.408Z" fill="#BBBBBC"/>
<path d="M77.3871 286.594L76.9078 286.872L75.0832 287.928L72.692 289.317L72.6539 289.339L70.339 290.652L64.195 294.203L44.957 283.091L58.1491 275.488L65.1537 279.529L77.3871 286.594Z" fill="#F9FAFB"/>
<path d="M55.8288 307.15L46.1934 312.749L46.1825 312.754L29.8041 303.299L26.9336 301.637L36.5799 296.033L55.8288 307.15Z" fill="#F9FAFB"/>
<path d="M46.1825 312.754L29.8041 303.299L26.9336 301.637V307.46L46.188 318.582H46.1934V312.765L46.1825 312.754ZM30.6973 308.168L28.1973 306.725V303.838L30.6973 305.281V308.168ZM44.9298 316.393L42.4297 314.949V312.062L44.908 313.495L44.9298 313.506V316.393Z" fill="#CFD2D3"/>
<path d="M46.1931 318.583L45.1583 319.188L26.9388 308.654L25.8984 308.055L26.9333 307.461H26.9388L46.1931 318.583Z" fill="#BBBBBC"/>
<path d="M46.1936 318.582V322.019L45.1533 322.613V319.187L46.1882 318.582H46.1936Z" fill="#C5C8C9"/>
<path d="M58.9554 313.216C58.4489 312.971 57.8606 312.884 57.2832 313.036C57.0654 313.085 56.853 313.172 56.646 313.292C55.513 313.946 54.5925 314.877 53.9607 315.972C53.6067 316.582 53.3452 317.247 53.1818 317.944C53.0457 318.488 52.9803 319.06 52.9803 319.638C52.9803 319.877 53.013 320.106 53.0783 320.319C53.2363 320.885 53.5903 321.348 54.0479 321.658L51.4062 320.133L51.319 320.084C51.0304 319.932 50.7689 319.719 50.5674 319.458L51.4879 318.924L52.855 313.635L56.2647 311.664H56.2701L58.9554 313.216Z" fill="#AAAAAA"/>
<path d="M61.5965 313.086L59.908 314.061C59.7173 313.772 59.4668 313.532 59.1836 313.347L58.982 313.233L58.9548 313.216L56.2695 311.664L59.6193 309.725L61.5965 313.086Z" fill="#BBBBBC"/>
<path d="M90.7262 296.256L89.1085 297.192C88.9178 296.724 88.5801 296.337 88.1662 296.076L87.9646 295.961L87.9374 295.945L85.5898 294.589L88.6891 292.797L90.7262 296.256Z" fill="#BBBBBC"/>
<path d="M41.9785 290.308V293.118L39.5928 291.74V288.93L41.9785 290.308Z" fill="#C5C8C9"/>
<path d="M43.1768 289.615V289.62L41.9785 290.307L39.5928 288.928L40.7856 288.242L41.9077 288.885L43.1768 289.615Z" fill="#F9FAFB"/>
<path d="M43.1758 289.621V292.426L41.9775 293.118V290.307L43.1758 289.621Z" fill="#BBBBBC"/>
<path d="M64.1952 294.203L55.829 307.15L36.5801 296.033L44.9572 283.092L64.1952 294.203Z" fill="#BBBBBC"/>
<path d="M45.1583 319.186V322.612L25.8984 311.507V308.053L26.9388 308.652L45.1583 319.186Z" fill="#C5C8C9"/>
<path d="M30.7032 305.282V308.169L28.2031 306.725V303.838L30.7032 305.282Z" fill="#F9FAFB"/>
<path d="M87.9376 295.947C87.4365 295.701 86.8483 295.62 86.2709 295.761C86.053 295.816 85.8406 295.903 85.6282 296.023C84.4953 296.676 83.5802 297.608 82.9429 298.703C82.4908 299.487 82.1804 300.359 82.0496 301.268C81.9897 301.628 81.9625 301.998 81.9625 302.368C81.9625 302.608 81.9952 302.837 82.0551 303.049C82.2185 303.61 82.5725 304.079 83.0301 304.384L80.4428 302.886L80.3067 302.81C80.1542 302.739 80.0126 302.635 79.8818 302.521L80.4319 302.205L81.8427 296.753L85.541 294.618L85.5901 294.59L87.9376 295.947Z" fill="#AAAAAA"/>
<path d="M89.2943 298.136C89.2943 299.443 88.9457 300.707 88.3139 301.801C87.682 302.896 86.767 303.833 85.6286 304.487C85.2364 304.71 84.817 304.813 84.4139 304.813C84.0109 304.813 83.6351 304.715 83.2919 304.536L83.0305 304.383C82.5729 304.078 82.2189 303.61 82.0555 303.049C81.9956 302.836 81.9629 302.607 81.9629 302.368C81.9629 301.997 81.9901 301.627 82.0501 301.268C82.1808 300.358 82.4913 299.486 82.9433 298.702C83.5806 297.607 84.4957 296.676 85.6286 296.022C85.841 295.902 86.0534 295.815 86.2713 295.761C86.8487 295.619 87.4369 295.701 87.938 295.946L87.9653 295.962L88.1668 296.077C88.5807 296.338 88.9185 296.725 89.1091 297.193C89.2289 297.477 89.2943 297.798 89.2943 298.136Z" fill="#BBBBBC"/>
<path d="M93.9999 285.117V294.382L90.7263 296.261L88.6893 292.803L85.59 294.595L85.541 294.622L81.8426 296.757L80.4319 302.209L79.8818 302.525L61.597 313.086L59.6198 309.726L56.27 311.665H56.2645L52.8549 313.637L51.4877 318.925L50.5672 319.459L46.1934 322.019V312.749L55.8288 307.15L61.8802 303.653L70.339 298.767L72.6539 297.432L79.8491 293.277L85.2305 290.166L89.3701 287.775L91.6142 286.495L93.9999 285.117Z" fill="#DBDFE0"/>
<path d="M44.9356 313.505V316.392L42.4355 314.949V312.062L44.9138 313.494L44.9356 313.505Z" fill="#F9FAFB"/>
<path d="M85.2298 290.167L79.8484 293.277L72.6532 297.433L70.3383 298.768L61.8795 303.653L55.8281 307.15L64.1944 294.203L70.3383 290.652L72.6532 289.339L72.6914 289.318L75.0825 287.929L76.9072 286.872L77.3974 286.594L85.2298 290.167Z" fill="#CFD2D3"/>
<path d="M93.9995 285.111V285.117L91.6138 286.495L89.3697 287.775L85.2301 290.166L77.3977 286.593L76.9075 286.871L77.3868 286.593L65.1533 279.528L68.8952 277.366L72.038 275.563L72.3594 275.378L74.7505 274L77.1362 275.378L91.6138 283.733L93.9995 285.111Z" fill="#F9FAFB"/>
<path d="M64.2714 303.194V306.005L61.8857 304.627V301.816L64.2714 303.194Z" fill="#C5C8C9"/>
<path d="M65.4697 302.504V302.509L64.2714 303.196L61.8857 301.818L63.0786 301.131L64.2006 301.774L65.4697 302.504Z" fill="#F9FAFB"/>
<path d="M65.4698 302.51V305.315L64.2715 306.007V303.196L65.4698 302.51Z" fill="#DBDFE0"/>
</g>
<g filter="url(#filter2_d_3075_76123)">
<path d="M267.125 342.636V345.978L265.199 344.868L233.688 326.669L224.82 321.548V318.207L267.125 342.636Z" fill="#CFD2D3"/>
<path d="M346.802 323.023V326.364L337.236 331.89L310.693 347.217V343.876L346.802 323.023Z" fill="#DBDFE0"/>
<path d="M343.695 298.424V301.736L325.825 312.054L323.946 309.828L341.816 299.51L343.695 298.424Z" fill="#DBDFE0"/>
<path d="M346.802 323.023L344.929 324.109L337.236 328.549L310.692 343.876L308.778 342.772L306.717 341.58H306.711L287.831 330.68L287.761 330.722L267.125 342.637L265.199 341.527L233.688 323.328L226.699 319.294L224.82 318.207L301.391 274L343.695 298.423L341.816 299.51L323.947 309.828L325.826 310.908L346.802 323.023Z" fill="#F9FAFB"/>
<path d="M268.123 397.004H262.421L254.675 392.529L245.99 387.514L240.887 390.456L202 368.006L233.688 349.713V352.896L215.788 363.232H215.783V366.79H215.788L248.838 385.87L257.524 390.885L265.04 395.225L268.123 397.004Z" fill="#CED1D5"/>
<path d="M294.214 389.375L292.923 390.115L288.289 392.793H288.283L285.329 391.09L281.853 389.082L286.492 386.404L287.761 385.67L287.778 385.658L291.261 387.667L294.214 389.375Z" fill="#CED1D5"/>
<path d="M265.199 382.311H248.838L218.872 365.011L215.789 363.231L233.688 352.896V364.118L265.199 382.311Z" fill="#DBDFE0"/>
<path d="M281.853 385.524L268.123 393.446L260.607 389.106L248.838 382.312H272.369L274.33 381.178L281.853 385.524Z" fill="#F8FAFA"/>
<path d="M328.645 369.942V374.752L313.065 383.748H298.049L294.338 385.892L290.862 383.883H290.856L287.779 382.098L287.761 382.092V382.11L284.696 383.878L283.41 384.623L281.853 385.522L274.331 381.176L272.369 382.31H265.199L270.678 379.144L282.259 372.462L287.761 369.285L291.343 371.352H291.349L298.872 375.697L308.772 381.417H308.778V381.411L314.31 378.217L328.645 369.942Z" fill="#DBDFE0"/>
<path d="M354.483 369.798L351.4 371.577L310.475 395.208L310.464 395.202L301.849 390.228L294.338 385.894L298.049 383.751H313.065L328.644 374.754V369.945L337.236 364.983V359.838L354.483 369.798Z" fill="#F9FAFB"/>
<path d="M248.838 382.31V385.869L215.789 366.789H215.783V363.23H215.789L218.872 365.01L248.838 382.31Z" fill="#BBBBBC"/>
<path d="M268.123 393.445V397.003L265.04 395.224L257.524 390.884L248.838 385.869V382.311L260.607 389.105L268.123 393.445Z" fill="#CFD2D3"/>
<path d="M351.952 345.051V348.61L337.235 357.101V353.543L348.869 346.831L351.952 345.051Z" fill="#DBDFE0"/>
<path d="M294.338 385.893V389.305L294.215 389.376L291.261 387.667L287.778 385.658L287.761 385.652V382.111L287.778 382.1L290.856 383.885H290.861L294.338 385.893Z" fill="#C6CACC"/>
<path d="M310.464 395.201V398.76L298.766 392.006L294.338 389.446V385.893L301.849 390.227L310.464 395.201Z" fill="#C6C9CC"/>
<path d="M325.814 317.562L324.082 318.56L322.349 319.558L320.623 318.56L318.891 317.562L322.349 315.559L325.814 317.562Z" fill="#CED1D5"/>
<path d="M322.355 312.822L314.151 317.561L318.256 319.928L322.355 322.294L326.454 319.928L330.553 317.561L322.355 312.822ZM324.082 318.56L322.349 319.558L320.623 318.56L318.89 317.561L322.349 315.559L325.814 317.561L324.082 318.56Z" fill="#F9FAFB"/>
<path d="M330.553 317.562V322.296L322.355 327.034V322.296L326.454 319.928L330.553 317.562Z" fill="#DBDFE0"/>
<path d="M286.786 354.27L282.258 356.883L275.205 360.953L270.678 356.425L270.689 356.419L282.258 349.742L286.786 354.27Z" fill="#DBDFE0"/>
<path d="M267.125 345.978L265.199 344.868V382.311L270.678 379.145V356.424H270.69L282.259 349.742L286.786 354.27L282.259 356.883V372.463L287.761 369.286V334.062L267.125 345.978Z" fill="#CFD2D3"/>
<path d="M308.778 346.113V381.418H308.772L298.871 375.698L291.349 371.352H291.343L287.761 369.285V334.063L287.831 334.021L306.711 344.921H306.717L308.778 346.113Z" fill="#C5C8C9"/>
<path d="M265.199 344.869V382.311L233.688 364.119V326.67L265.199 344.869Z" fill="#C5C8C9"/>
<path d="M331.921 353.582V368.051L328.644 369.942L314.31 378.216V356.606L318.837 361.133L331.921 353.582Z" fill="#BBBBBC"/>
<path d="M336.449 350.969L331.921 353.582L318.837 361.134L314.31 356.606L331.921 346.441L336.449 350.969Z" fill="#F9FAFB"/>
<path d="M337.236 331.891V364.982L331.921 368.053V353.584L336.449 350.971L331.921 346.443L314.31 356.608V378.219L308.778 381.413V346.114L310.692 347.218L337.236 331.891Z" fill="#CFD2D3"/>
<path d="M322.355 322.296V327.034L314.151 322.296V317.562L318.256 319.928L322.355 322.296Z" fill="#CFD2D3"/>
<path d="M282.258 356.884V372.464L270.678 379.147V356.426L275.205 360.954L282.258 356.884Z" fill="#BBBBBC"/>
<path d="M281.853 385.523V389.082L268.124 397.004V393.445L281.853 385.523Z" fill="#DBDFE0"/>
<path d="M354.483 369.797V373.356L313.552 396.986L310.475 398.765L310.463 398.76V395.213L310.475 395.207L351.4 371.576L354.483 369.797Z" fill="#DBDFE0"/>
<path d="M351.952 345.044V345.05L348.869 346.829L337.235 353.542V336.547L351.952 345.044Z" fill="#F9FAFB"/>
<path d="M287.761 382.111V385.67L286.492 386.404L281.853 389.081V385.523L283.409 384.624L284.695 383.878L287.761 382.111Z" fill="#CED1D2"/>
<path d="M287.831 330.682V334.023L287.761 334.064L267.125 345.979V342.638L287.761 330.723L287.831 330.682Z" fill="#DBDFE0"/>
<path d="M310.692 343.877V347.218L308.778 346.114L306.717 344.922H306.711L287.831 334.023V330.682L310.692 343.877Z" fill="#CFD2D3"/>
</g>
</g>
<defs>
<filter id="filter0_f_3075_76123" x="-58.2207" y="83.0547" width="479.26" height="333.732" filterUnits="userSpaceOnUse" color-interpolation-filters="sRGB">
<feFlood flood-opacity="0" result="BackgroundImageFix"/>
<feBlend mode="normal" in="SourceGraphic" in2="BackgroundImageFix" result="shape"/>
<feGaussianBlur stdDeviation="54.5" result="effect1_foregroundBlur_3075_76123"/>
</filter>
<filter id="filter1_d_3075_76123" x="18" y="268" width="86" height="67.4395" filterUnits="userSpaceOnUse" color-interpolation-filters="sRGB">
<feFlood flood-opacity="0" result="BackgroundImageFix"/>
<feColorMatrix in="SourceAlpha" type="matrix" values="0 0 0 0 0 0 0 0 0 0 0 0 0 0 0 0 0 0 127 0" result="hardAlpha"/>
<feOffset dx="4"/>
<feGaussianBlur stdDeviation="3"/>
<feComposite in2="hardAlpha" operator="out"/>
<feColorMatrix type="matrix" values="0 0 0 0 0 0 0 0 0 0 0 0 0 0 0 0 0 0 0.1 0"/>
<feBlend mode="normal" in2="BackgroundImageFix" result="effect1_dropShadow_3075_76123"/>
<feBlend mode="normal" in="SourceGraphic" in2="effect1_dropShadow_3075_76123" result="shape"/>
</filter>
<filter id="filter2_d_3075_76123" x="179" y="244" width="198.482" height="170.766" filterUnits="userSpaceOnUse" color-interpolation-filters="sRGB">
<feFlood flood-opacity="0" result="BackgroundImageFix"/>
<feColorMatrix in="SourceAlpha" type="matrix" values="0 0 0 0 0 0 0 0 0 0 0 0 0 0 0 0 0 0 127 0" result="hardAlpha"/>
<feOffset dy="-7"/>
<feGaussianBlur stdDeviation="11.5"/>
<feComposite in2="hardAlpha" operator="out"/>
<feColorMatrix type="matrix" values="0 0 0 0 0.145098 0 0 0 0 0.458824 0 0 0 0 0.988235 0 0 0 0.1 0"/>
<feBlend mode="normal" in2="BackgroundImageFix" result="effect1_dropShadow_3075_76123"/>
<feBlend mode="normal" in="SourceGraphic" in2="effect1_dropShadow_3075_76123" result="shape"/>
</filter>
<clipPath id="clip0_3075_76123">
<rect width="375" height="415" fill="white"/>
</clipPath>
</defs>
</svg>
