<svg width="28" height="28" viewBox="0 0 28 28" fill="none" xmlns="http://www.w3.org/2000/svg">
<path d="M9.0839 19.8628C12.5423 23.3255 16.7294 25.9851 20.1497 25.9851C21.6846 25.9851 23.032 25.4515 24.1132 24.2585C24.7448 23.5565 25.1231 22.748 25.1231 21.9426C25.1231 21.3208 24.8836 20.7225 24.2969 20.2966L20.6908 17.7356C20.1232 17.3437 19.6556 17.1562 19.2274 17.1562C18.6853 17.1562 18.1985 17.4673 17.651 18.003L16.8063 18.8402C16.6774 18.9691 16.5091 19.0277 16.3568 19.0277C16.1768 19.0277 15.9947 18.9574 15.8754 18.8925C15.1383 18.4931 13.875 17.4077 12.7022 16.2445C11.539 15.0813 10.4536 13.818 10.0638 13.0809C9.9989 12.952 9.92859 12.7795 9.92859 12.6017C9.92859 12.4472 9.97757 12.2885 10.1065 12.1596L10.9533 11.2957C11.4795 10.7482 11.8001 10.271 11.8001 9.7193C11.8001 9.2911 11.603 8.82352 11.2015 8.25587L8.66929 4.68821C8.23804 4.09196 7.62586 3.83533 6.96562 3.83533C6.17531 3.83533 5.37633 4.18267 4.67859 4.85274C3.51445 5.95524 3 7.32188 3 8.83548C3 12.2557 5.62125 16.414 9.0839 19.8628Z" fill="black"/>
</svg>
