<svg width="512" height="512" viewBox="0 0 512 512" fill="none" xmlns="http://www.w3.org/2000/svg">
<rect x="64" y="65" width="383" height="383" fill="white"/>
<path d="M376 16H136C69.726 16 16 69.726 16 136V376C16 442.274 69.726 496 136 496H376C442.274 496 496 442.274 496 376V136C496 69.726 442.274 16 376 16ZM311.559 416.564C303.045 418.221 300.027 412.979 300.027 408.477C300.027 402.962 300.235 384.813 300.235 362.301C300.235 346.6 294.868 336.336 288.848 331.134C326.222 326.966 365.444 312.734 365.444 248.077C365.444 229.693 358.962 214.668 348.204 202.887C349.924 198.636 355.671 181.532 346.525 158.351C346.525 158.351 332.453 153.825 300.422 175.601C287.018 171.847 272.653 170.006 258.412 169.921C244.129 169.984 229.782 171.847 216.398 175.578C184.354 153.805 170.258 158.327 170.258 158.327C161.134 181.488 166.88 198.612 168.619 202.867C157.884 214.647 151.337 229.674 151.337 248.055C151.337 312.543 190.519 326.985 227.771 331.243C222.964 335.456 218.624 342.873 217.114 353.749C207.551 358.065 183.239 365.487 168.263 339.771C168.263 339.771 159.413 323.612 142.572 322.418C142.572 322.418 126.19 322.207 141.437 332.645C141.437 332.645 152.451 337.819 160.066 357.271C160.066 357.271 169.922 390.009 216.588 379.841C216.676 393.887 216.82 404.471 216.82 408.476C216.82 412.942 213.757 418.138 205.368 416.582C138.671 394.305 90.597 331.219 90.597 256.857C90.597 163.881 165.725 88.514 258.368 88.514C351.056 88.514 426.184 163.881 426.184 256.857C426.186 331.201 378.153 394.262 311.559 416.564Z" fill="black"/>
</svg>
